{
    "asset" : {
        "generator" : "Khronos glTF Blender I/O v1.2.75",
        "version" : "2.0"
    },
    "scene" : 0,
    "scenes" : [
        {
            "name" : "Scene",
            "nodes" : [
                0,
                1,
                2,
                3,
                4,
                5,
                6
            ]
        }
    ],
    "nodes" : [
        {
            "name" : "Light",
            "rotation" : [
                0.16907575726509094,
                0.7558803558349609,
                -0.27217137813568115,
                0.570947527885437
            ],
            "translation" : [
                4.076245307922363,
                5.903861999511719,
                -1.0054539442062378
            ]
        },
        {
            "name" : "Camera",
            "rotation" : [
                0.483536034822464,
                0.33687159419059753,
                -0.20870360732078552,
                0.7804827094078064
            ],
            "translation" : [
                7.358891487121582,
                4.958309173583984,
                6.925790786743164
            ]
        },
        {
            "mesh" : 0,
            "name" : "Cube.001",
            "rotation" : [
                0.7071068286895752,
                0,
                0,
                0.7071067094802856
            ],
            "translation" : [
                0,
                2.8671863079071045,
                0
            ]
        },
        {
            "mesh" : 1,
            "name" : "Text",
            "rotation" : [
                0.7071068286895752,
                0,
                0,
                0.7071067094802856
            ],
            "translation" : [
                0,
                2.8671863079071045,
                0
            ]
        },
        {
            "mesh" : 2,
            "name" : "Text.001",
            "rotation" : [
                0.7071068286895752,
                0,
                0,
                0.7071067094802856
            ],
            "translation" : [
                0,
                2.8671863079071045,
                0
            ]
        },
        {
            "mesh" : 3,
            "name" : "Plane",
            "rotation" : [
                0.7071068286895752,
                0,
                0,
                0.7071067094802856
            ],
            "translation" : [
                0,
                2.8671863079071045,
                0
            ]
        },
        {
            "mesh" : 4,
            "name" : "Cube",
            "scale" : [
                1.0354713201522827,
                1.0354713201522827,
                0.8693519234657288
            ],
            "translation" : [
                -1.5661320686340332,
                0.9644336700439453,
                -0.3481934070587158
            ]
        }
    ],
    "materials" : [
        {
            "doubleSided" : true,
            "emissiveFactor" : [
                0,
                0,
                0
            ],
            "name" : "Material.001",
            "pbrMetallicRoughness" : {
                "baseColorFactor" : [
                    0.800000011920929,
                    0.800000011920929,
                    0.800000011920929,
                    1
                ],
                "metallicFactor" : 0,
                "roughnessFactor" : 0.5
            }
        },
        {
            "doubleSided" : true,
            "emissiveFactor" : [
                0,
                0,
                0
            ],
            "name" : "Material.002",
            "pbrMetallicRoughness" : {
                "baseColorFactor" : [
                    0.800000011920929,
                    0.800000011920929,
                    0.800000011920929,
                    1
                ],
                "metallicFactor" : 0,
                "roughnessFactor" : 0.5
            }
        },
        {
            "doubleSided" : true,
            "emissiveFactor" : [
                0,
                0,
                0
            ],
            "name" : "Material.003",
            "pbrMetallicRoughness" : {
                "baseColorFactor" : [
                    0.800000011920929,
                    0.800000011920929,
                    0.800000011920929,
                    1
                ],
                "metallicFactor" : 0,
                "roughnessFactor" : 0.5
            }
        },
        {
            "doubleSided" : true,
            "emissiveFactor" : [
                0,
                0,
                0
            ],
            "name" : "Material.004",
            "pbrMetallicRoughness" : {
                "baseColorFactor" : [
                    0.800000011920929,
                    0.800000011920929,
                    0.800000011920929,
                    1
                ],
                "metallicFactor" : 0,
                "roughnessFactor" : 0.5
            }
        },
        {
            "doubleSided" : true,
            "emissiveFactor" : [
                0,
                0,
                0
            ],
            "name" : "Material.005",
            "pbrMetallicRoughness" : {
                "baseColorFactor" : [
                    0.800000011920929,
                    0.800000011920929,
                    0.800000011920929,
                    1
                ],
                "metallicFactor" : 0,
                "roughnessFactor" : 0.5
            }
        }
    ],
    "meshes" : [
        {
            "name" : "Cube.001",
            "primitives" : [
                {
                    "attributes" : {
                        "POSITION" : 0,
                        "NORMAL" : 1,
                        "TEXCOORD_0" : 2
                    },
                    "indices" : 3,
                    "material" : 0
                },
                {
                    "attributes" : {
                        "POSITION" : 4,
                        "NORMAL" : 5,
                        "TEXCOORD_0" : 6
                    },
                    "indices" : 7,
                    "material" : 1
                }
            ]
        },
        {
            "name" : "Text",
            "primitives" : [
                {
                    "attributes" : {
                        "POSITION" : 8,
                        "NORMAL" : 9,
                        "TEXCOORD_0" : 10
                    },
                    "indices" : 11,
                    "material" : 2
                }
            ]
        },
        {
            "name" : "Text.001",
            "primitives" : [
                {
                    "attributes" : {
                        "POSITION" : 12,
                        "NORMAL" : 13,
                        "TEXCOORD_0" : 14
                    },
                    "indices" : 15,
                    "material" : 2
                }
            ]
        },
        {
            "name" : "Plane",
            "primitives" : [
                {
                    "attributes" : {
                        "POSITION" : 16,
                        "NORMAL" : 17,
                        "TEXCOORD_0" : 18
                    },
                    "indices" : 19,
                    "material" : 3
                }
            ]
        },
        {
            "name" : "Cube.002",
            "primitives" : [
                {
                    "attributes" : {
                        "POSITION" : 20,
                        "NORMAL" : 21,
                        "TEXCOORD_0" : 22
                    },
                    "indices" : 23,
                    "material" : 4
                }
            ]
        }
    ],
    "accessors" : [
        {
            "bufferView" : 0,
            "componentType" : 5126,
            "count" : 488,
            "max" : [
                -0.11708399653434753,
                1.0643160343170166,
                1.6084450483322144
            ],
            "min" : [
                -0.4380190074443817,
                -1.8276599645614624,
                -0.7562000155448914
            ],
            "type" : "VEC3"
        },
        {
            "bufferView" : 1,
            "componentType" : 5126,
            "count" : 488,
            "type" : "VEC3"
        },
        {
            "bufferView" : 2,
            "componentType" : 5126,
            "count" : 488,
            "type" : "VEC2"
        },
        {
            "bufferView" : 3,
            "componentType" : 5123,
            "count" : 780,
            "type" : "SCALAR"
        },
        {
            "bufferView" : 4,
            "componentType" : 5126,
            "count" : 280,
            "max" : [
                -0.23546600341796875,
                0.5032789707183838,
                1.6807680130004883
            ],
            "min" : [
                -0.36941200494766235,
                -1.2666230201721191,
                -0.8285220265388489
            ],
            "type" : "VEC3"
        },
        {
            "bufferView" : 5,
            "componentType" : 5126,
            "count" : 280,
            "type" : "VEC3"
        },
        {
            "bufferView" : 6,
            "componentType" : 5126,
            "count" : 280,
            "type" : "VEC2"
        },
        {
            "bufferView" : 7,
            "componentType" : 5123,
            "count" : 408,
            "type" : "SCALAR"
        },
        {
            "bufferView" : 8,
            "componentType" : 5126,
            "count" : 568,
            "max" : [
                -0.24923500418663025,
                0.3917439877986908,
                0.4590409994125366
            ],
            "min" : [
                -0.24923500418663025,
                -1.1175090074539185,
                -0.14685699343681335
            ],
            "type" : "VEC3"
        },
        {
            "bufferView" : 9,
            "componentType" : 5126,
            "count" : 568,
            "type" : "VEC3"
        },
        {
            "bufferView" : 10,
            "componentType" : 5126,
            "count" : 568,
            "type" : "VEC2"
        },
        {
            "bufferView" : 11,
            "componentType" : 5123,
            "count" : 636,
            "type" : "SCALAR"
        },
        {
            "bufferView" : 12,
            "componentType" : 5126,
            "count" : 2073,
            "max" : [
                -0.24923500418663025,
                0.3780899941921234,
                1.156398057937622
            ],
            "min" : [
                -0.24923500418663025,
                -0.9438580274581909,
                0.7619820237159729
            ],
            "type" : "VEC3"
        },
        {
            "bufferView" : 13,
            "componentType" : 5126,
            "count" : 2073,
            "type" : "VEC3"
        },
        {
            "bufferView" : 14,
            "componentType" : 5126,
            "count" : 2073,
            "type" : "VEC2"
        },
        {
            "bufferView" : 15,
            "componentType" : 5123,
            "count" : 2313,
            "type" : "SCALAR"
        },
        {
            "bufferView" : 16,
            "componentType" : 5126,
            "count" : 28,
            "max" : [
                -0.23340100049972534,
                0.5731899738311768,
                1.566804051399231
            ],
            "min" : [
                -0.23340100049972534,
                -1.4268100261688232,
                -0.5711699724197388
            ],
            "type" : "VEC3"
        },
        {
            "bufferView" : 17,
            "componentType" : 5126,
            "count" : 28,
            "type" : "VEC3"
        },
        {
            "bufferView" : 18,
            "componentType" : 5126,
            "count" : 28,
            "type" : "VEC2"
        },
        {
            "bufferView" : 19,
            "componentType" : 5123,
            "count" : 54,
            "type" : "SCALAR"
        },
        {
            "bufferView" : 20,
            "componentType" : 5126,
            "count" : 632,
            "max" : [
                1.3230725526809692,
                2.0689382553100586,
                3.3538668155670166
            ],
            "min" : [
                -1.3612940311431885,
                0.7489221096038818,
                1.1963332891464233
            ],
            "type" : "VEC3"
        },
        {
            "bufferView" : 21,
            "componentType" : 5126,
            "count" : 632,
            "type" : "VEC3"
        },
        {
            "bufferView" : 22,
            "componentType" : 5126,
            "count" : 632,
            "type" : "VEC2"
        },
        {
            "bufferView" : 23,
            "componentType" : 5123,
            "count" : 948,
            "type" : "SCALAR"
        }
    ],
    "bufferViews" : [
        {
            "buffer" : 0,
            "byteLength" : 5856,
            "byteOffset" : 0
        },
        {
            "buffer" : 0,
            "byteLength" : 5856,
            "byteOffset" : 5856
        },
        {
            "buffer" : 0,
            "byteLength" : 3904,
            "byteOffset" : 11712
        },
        {
            "buffer" : 0,
            "byteLength" : 1560,
            "byteOffset" : 15616
        },
        {
            "buffer" : 0,
            "byteLength" : 3360,
            "byteOffset" : 17176
        },
        {
            "buffer" : 0,
            "byteLength" : 3360,
            "byteOffset" : 20536
        },
        {
            "buffer" : 0,
            "byteLength" : 2240,
            "byteOffset" : 23896
        },
        {
            "buffer" : 0,
            "byteLength" : 816,
            "byteOffset" : 26136
        },
        {
            "buffer" : 0,
            "byteLength" : 6816,
            "byteOffset" : 26952
        },
        {
            "buffer" : 0,
            "byteLength" : 6816,
            "byteOffset" : 33768
        },
        {
            "buffer" : 0,
            "byteLength" : 4544,
            "byteOffset" : 40584
        },
        {
            "buffer" : 0,
            "byteLength" : 1272,
            "byteOffset" : 45128
        },
        {
            "buffer" : 0,
            "byteLength" : 24876,
            "byteOffset" : 46400
        },
        {
            "buffer" : 0,
            "byteLength" : 24876,
            "byteOffset" : 71276
        },
        {
            "buffer" : 0,
            "byteLength" : 16584,
            "byteOffset" : 96152
        },
        {
            "buffer" : 0,
            "byteLength" : 4626,
            "byteOffset" : 112736
        },
        {
            "buffer" : 0,
            "byteLength" : 336,
            "byteOffset" : 117364
        },
        {
            "buffer" : 0,
            "byteLength" : 336,
            "byteOffset" : 117700
        },
        {
            "buffer" : 0,
            "byteLength" : 224,
            "byteOffset" : 118036
        },
        {
            "buffer" : 0,
            "byteLength" : 108,
            "byteOffset" : 118260
        },
        {
            "buffer" : 0,
            "byteLength" : 7584,
            "byteOffset" : 118368
        },
        {
            "buffer" : 0,
            "byteLength" : 7584,
            "byteOffset" : 125952
        },
        {
            "buffer" : 0,
            "byteLength" : 5056,
            "byteOffset" : 133536
        },
        {
            "buffer" : 0,
            "byteLength" : 1896,
            "byteOffset" : 138592
        }
    ],
    "buffers" : [
        {
            "byteLength" : 140488,
            "uri" : "data:application/octet-stream;base64,"
        }
    ]
}
